<?xml version="1.0" encoding="UTF-8" standalone="no"?>
<!-- Created with Inkscape (http://www.inkscape.org/) -->

<svg
   width="24"
   height="24"
   viewBox="0 0 6.3500001 6.3500001"
   version="1.1"
   id="svg349"
   sodipodi:docname="reZero.svg"
   inkscape:version="1.2.2 (732a01da63, 2022-12-09)"
   xmlns:inkscape="http://www.inkscape.org/namespaces/inkscape"
   xmlns:sodipodi="http://sodipodi.sourceforge.net/DTD/sodipodi-0.dtd"
   xmlns="http://www.w3.org/2000/svg"
   xmlns:svg="http://www.w3.org/2000/svg">
  <sodipodi:namedview
     id="namedview351"
     pagecolor="#ffffff"
     bordercolor="#000000"
     borderopacity="0.25"
     inkscape:showpageshadow="2"
     inkscape:pageopacity="0.0"
     inkscape:pagecheckerboard="0"
     inkscape:deskcolor="#d1d1d1"
     inkscape:document-units="mm"
     showgrid="false"
     inkscape:zoom="16.206792"
     inkscape:cx="19.590552"
     inkscape:cy="16.443723"
     inkscape:window-width="1920"
     inkscape:window-height="991"
     inkscape:window-x="-9"
     inkscape:window-y="-9"
     inkscape:window-maximized="1"
     inkscape:current-layer="layer1" />
  <defs
     id="defs346">
    <rect
       x="15.357856"
       y="16.754025"
       width="219.1985"
       height="226.17934"
       id="rect524" />
  </defs>
  <g
     inkscape:label="Layer 1"
     inkscape:groupmode="layer"
     id="layer1">
    <path
       d="m 1.4666414,5.3203989 q -0.66145779,0 -0.99494278,-0.5401905 -0.33624106,-0.5429467 -0.33624106,-1.593011 0,-1.0528203 0.33624106,-1.595767 0.33348499,-0.5401905 0.99494278,-0.5401905 0.6614579,0 0.9976989,0.5401905 0.1653645,0.2645831 0.2508028,0.6614578 0.085438,0.3941187 0.085438,0.9343092 0,0.5401906 -0.085438,0.9343092 Q 2.6297048,4.5156253 2.4643403,4.7802084 2.1253432,5.3203989 1.4666414,5.3203989 Z m 0,-0.4409718 q 0.3941187,0 0.5842878,-0.4189233 0.1901691,-0.4161673 0.1901691,-1.2733064 0,-0.8598951 -0.1901691,-1.2733063 -0.1901691,-0.4216794 -0.5842878,-0.4216794 -0.3886064,0 -0.57877556,0.4189233 -0.0964626,0.2067056 -0.14607194,0.5208981 -0.0468533,0.3114364 -0.0468533,0.7551643 0,0.8626513 0.1929252,1.2733064 0.1929252,0.4189233 0.5787756,0.4189233 z m 0.00551,-0.7303597 q -0.088194,0 -0.1378037,-0.1185112 Q 1.2874966,3.912045 1.2544237,3.7521927 1.226863,3.6254133 1.2075705,3.4462684 1.191034,3.2671236 1.191034,3.1734171 q 0,-0.066146 0.011024,-0.2370224 Q 1.213082,2.7655181 1.246155,2.613934 1.326081,2.2198154 1.4611288,2.2198154 q 0.07717,0 0.1295355,0.1047308 0.055121,0.1047308 0.093706,0.297656 0.027561,0.1378037 0.044097,0.3086803 0.016536,0.1708766 0.016536,0.2645832 0,0.055121 -0.011024,0.2177298 -0.00827,0.1626084 -0.035829,0.333485 -0.068902,0.4023869 -0.2259989,0.4023869 z"
       id="path7787"
       style="font-size:5.64444px;font-family:Hack;-inkscape-font-specification:Hack;text-align:center;text-anchor:middle;stroke:#000000;stroke-width:0.132292" />
    <path
       d="m 4.52864,3.6336815 q 0,-0.2177299 0.082682,-0.4023869 0.09095,-0.1901691 0.3169486,-0.4161672 L 5.1763175,2.5698368 q 0.079926,-0.079926 0.1405597,-0.1515841 0.06339,-0.074414 0.093707,-0.1322916 0.066146,-0.1212672 0.066146,-0.2590709 0,-0.1295355 -0.049609,-0.2259981 Q 5.3775109,1.7016734 5.2975847,1.6327715 5.1184399,1.4811874 4.8207839,1.4811874 q -0.2287542,0 -0.4657766,0.093707 Q 4.230984,1.6217472 4.1014485,1.6934052 3.9746691,1.7650631 3.8396214,1.8587696 V 1.3406277 q 0.2645832,-0.1598524 0.5236541,-0.2342664 0.2480467,-0.07717 0.5374345,-0.07717 0.2756075,0 0.482313,0.071658 0.2094617,0.068902 0.3500215,0.1929252 0.3004121,0.2673392 0.3004121,0.7000429 0,0.223242 -0.093707,0.3996307 -0.099219,0.184657 -0.3500214,0.4327037 L 5.3471941,3.0631741 Q 5.1542689,3.2478311 5.1046595,3.3608301 5.0522941,3.468317 5.0522941,3.5895843 V 3.9396057 H 4.52864 Z m 0.2728513,1.7170343 q -0.1708766,0 -0.2866317,-0.1157552 -0.1185112,-0.1185112 -0.1185112,-0.3059242 0,-0.184657 0.1157551,-0.3004121 0.046853,-0.046853 0.1185112,-0.079926 0.074414,-0.035829 0.1681206,-0.035829 0.1708766,0 0.2866317,0.1157551 0.1157551,0.1157551 0.1157551,0.3004121 0,0.187413 -0.1157551,0.3031682 -0.1185112,0.1185112 -0.2838757,0.1185111 z"
       id="path7789"
       style="font-size:5.64444px;font-family:Hack;-inkscape-font-specification:Hack;text-align:center;text-anchor:middle;stroke:#000000;stroke-width:0.132292" />
  </g>
</svg>
